<mxfile host="app.diagrams.net" modified="2020-11-17T14:31:40.075Z" agent="5.0 (Windows NT 10.0; Win64; x64) AppleWebKit/537.36 (KHTML, like Gecko) Chrome/86.0.4240.193 Safari/537.36" etag="CGVwrBRrN5Y6JsNoTYDw" version="13.8.6" type="github">
  <diagram id="syqn4SseQlz406iORsOP" name="Page-1">
    <mxGraphModel dx="1298" dy="685" grid="1" gridSize="10" guides="1" tooltips="1" connect="1" arrows="1" fold="1" page="1" pageScale="1" pageWidth="827" pageHeight="1169" math="0" shadow="0">
      <root>
        <mxCell id="0" />
        <mxCell id="1" parent="0" />
        <mxCell id="goAMpSTgP3EdkrI4cjcQ-1" value="직원" style="rounded=0;whiteSpace=wrap;html=1;" vertex="1" parent="1">
          <mxGeometry x="215" y="210" width="95" height="48" as="geometry" />
        </mxCell>
        <mxCell id="goAMpSTgP3EdkrI4cjcQ-2" value="부서" style="rounded=0;whiteSpace=wrap;html=1;" vertex="1" parent="1">
          <mxGeometry x="660" y="210" width="120" height="60" as="geometry" />
        </mxCell>
        <mxCell id="goAMpSTgP3EdkrI4cjcQ-3" value="상사" style="rhombus;whiteSpace=wrap;html=1;" vertex="1" parent="1">
          <mxGeometry x="200" y="310" width="125" height="68" as="geometry" />
        </mxCell>
        <mxCell id="goAMpSTgP3EdkrI4cjcQ-4" value="N" style="endArrow=none;html=1;exitX=1;exitY=0.5;exitDx=0;exitDy=0;entryX=1;entryY=0.5;entryDx=0;entryDy=0;" edge="1" parent="1" source="goAMpSTgP3EdkrI4cjcQ-3" target="goAMpSTgP3EdkrI4cjcQ-1">
          <mxGeometry x="-1" y="-15" width="50" height="50" relative="1" as="geometry">
            <mxPoint x="475" y="310" as="sourcePoint" />
            <mxPoint x="525" y="260" as="targetPoint" />
            <mxPoint y="2" as="offset" />
          </mxGeometry>
        </mxCell>
        <mxCell id="goAMpSTgP3EdkrI4cjcQ-5" value="1" style="endArrow=none;html=1;exitX=0;exitY=0.5;exitDx=0;exitDy=0;entryX=0;entryY=0.5;entryDx=0;entryDy=0;" edge="1" parent="1" source="goAMpSTgP3EdkrI4cjcQ-3" target="goAMpSTgP3EdkrI4cjcQ-1">
          <mxGeometry x="-1" y="15" width="50" height="50" relative="1" as="geometry">
            <mxPoint x="485" y="310" as="sourcePoint" />
            <mxPoint x="525" y="260" as="targetPoint" />
            <mxPoint y="2" as="offset" />
          </mxGeometry>
        </mxCell>
        <mxCell id="goAMpSTgP3EdkrI4cjcQ-6" value="생년월일" style="ellipse;whiteSpace=wrap;html=1;align=center;" vertex="1" parent="1">
          <mxGeometry x="70" y="250" width="75" height="28" as="geometry" />
        </mxCell>
        <mxCell id="goAMpSTgP3EdkrI4cjcQ-8" value="성별" style="ellipse;whiteSpace=wrap;html=1;align=center;" vertex="1" parent="1">
          <mxGeometry x="180" y="120" width="75" height="28" as="geometry" />
        </mxCell>
        <mxCell id="goAMpSTgP3EdkrI4cjcQ-9" value="주소" style="ellipse;whiteSpace=wrap;html=1;align=center;" vertex="1" parent="1">
          <mxGeometry x="265" y="120" width="75" height="28" as="geometry" />
        </mxCell>
        <mxCell id="goAMpSTgP3EdkrI4cjcQ-10" value="연봉" style="ellipse;whiteSpace=wrap;html=1;align=center;" vertex="1" parent="1">
          <mxGeometry x="325" y="136" width="75" height="28" as="geometry" />
        </mxCell>
        <mxCell id="goAMpSTgP3EdkrI4cjcQ-11" value="직원이름" style="ellipse;whiteSpace=wrap;html=1;align=center;" vertex="1" parent="1">
          <mxGeometry x="100" y="92" width="75" height="28" as="geometry" />
        </mxCell>
        <mxCell id="goAMpSTgP3EdkrI4cjcQ-12" value="성" style="ellipse;whiteSpace=wrap;html=1;align=center;" vertex="1" parent="1">
          <mxGeometry x="10" y="48" width="75" height="28" as="geometry" />
        </mxCell>
        <mxCell id="goAMpSTgP3EdkrI4cjcQ-13" value="이니셜" style="ellipse;whiteSpace=wrap;html=1;align=center;" vertex="1" parent="1">
          <mxGeometry x="100" y="30" width="75" height="28" as="geometry" />
        </mxCell>
        <mxCell id="goAMpSTgP3EdkrI4cjcQ-14" value="이름" style="ellipse;whiteSpace=wrap;html=1;align=center;" vertex="1" parent="1">
          <mxGeometry x="190" y="20" width="75" height="28" as="geometry" />
        </mxCell>
        <mxCell id="goAMpSTgP3EdkrI4cjcQ-15" value="사회보장번호" style="ellipse;whiteSpace=wrap;html=1;align=center;fontStyle=4;" vertex="1" parent="1">
          <mxGeometry x="70" y="160" width="75" height="28" as="geometry" />
        </mxCell>
        <mxCell id="goAMpSTgP3EdkrI4cjcQ-16" value="" style="endArrow=none;html=1;rounded=0;exitX=0.5;exitY=1;exitDx=0;exitDy=0;entryX=0.75;entryY=0;entryDx=0;entryDy=0;" edge="1" parent="1" source="goAMpSTgP3EdkrI4cjcQ-9" target="goAMpSTgP3EdkrI4cjcQ-1">
          <mxGeometry relative="1" as="geometry">
            <mxPoint x="250" y="220" as="sourcePoint" />
            <mxPoint x="410" y="220" as="targetPoint" />
            <Array as="points">
              <mxPoint x="310" y="170" />
            </Array>
          </mxGeometry>
        </mxCell>
        <mxCell id="goAMpSTgP3EdkrI4cjcQ-19" value="" style="endArrow=none;html=1;rounded=0;exitX=1;exitY=0.5;exitDx=0;exitDy=0;entryX=0.5;entryY=1;entryDx=0;entryDy=0;" edge="1" parent="1" source="goAMpSTgP3EdkrI4cjcQ-1" target="goAMpSTgP3EdkrI4cjcQ-10">
          <mxGeometry relative="1" as="geometry">
            <mxPoint x="330" y="239" as="sourcePoint" />
            <mxPoint x="360" y="220" as="targetPoint" />
          </mxGeometry>
        </mxCell>
        <mxCell id="goAMpSTgP3EdkrI4cjcQ-24" value="" style="endArrow=none;html=1;rounded=0;exitX=0.5;exitY=1;exitDx=0;exitDy=0;entryX=0.5;entryY=0;entryDx=0;entryDy=0;" edge="1" parent="1" source="goAMpSTgP3EdkrI4cjcQ-8" target="goAMpSTgP3EdkrI4cjcQ-1">
          <mxGeometry relative="1" as="geometry">
            <mxPoint x="260" y="220" as="sourcePoint" />
            <mxPoint x="420" y="220" as="targetPoint" />
          </mxGeometry>
        </mxCell>
        <mxCell id="goAMpSTgP3EdkrI4cjcQ-25" value="" style="endArrow=none;html=1;rounded=0;exitX=1;exitY=0.5;exitDx=0;exitDy=0;entryX=0;entryY=0.25;entryDx=0;entryDy=0;" edge="1" parent="1" source="goAMpSTgP3EdkrI4cjcQ-15" target="goAMpSTgP3EdkrI4cjcQ-1">
          <mxGeometry relative="1" as="geometry">
            <mxPoint x="170" y="180" as="sourcePoint" />
            <mxPoint x="180" y="230" as="targetPoint" />
          </mxGeometry>
        </mxCell>
        <mxCell id="goAMpSTgP3EdkrI4cjcQ-27" value="" style="endArrow=none;html=1;rounded=0;exitX=1;exitY=0.5;exitDx=0;exitDy=0;entryX=0;entryY=0.5;entryDx=0;entryDy=0;" edge="1" parent="1" source="goAMpSTgP3EdkrI4cjcQ-6" target="goAMpSTgP3EdkrI4cjcQ-1">
          <mxGeometry relative="1" as="geometry">
            <mxPoint x="170" y="270" as="sourcePoint" />
            <mxPoint x="180" y="320" as="targetPoint" />
          </mxGeometry>
        </mxCell>
        <mxCell id="goAMpSTgP3EdkrI4cjcQ-28" value="" style="endArrow=none;html=1;rounded=0;exitX=0.5;exitY=1;exitDx=0;exitDy=0;entryX=0;entryY=0.5;entryDx=0;entryDy=0;" edge="1" parent="1" source="goAMpSTgP3EdkrI4cjcQ-12" target="goAMpSTgP3EdkrI4cjcQ-11">
          <mxGeometry relative="1" as="geometry">
            <mxPoint x="40" y="-10" as="sourcePoint" />
            <mxPoint x="80" y="50" as="targetPoint" />
          </mxGeometry>
        </mxCell>
        <mxCell id="goAMpSTgP3EdkrI4cjcQ-29" value="" style="endArrow=none;html=1;rounded=0;exitX=0.5;exitY=1;exitDx=0;exitDy=0;entryX=0.5;entryY=0;entryDx=0;entryDy=0;" edge="1" parent="1" source="goAMpSTgP3EdkrI4cjcQ-13" target="goAMpSTgP3EdkrI4cjcQ-11">
          <mxGeometry relative="1" as="geometry">
            <mxPoint x="125" y="-10" as="sourcePoint" />
            <mxPoint x="135" y="40" as="targetPoint" />
          </mxGeometry>
        </mxCell>
        <mxCell id="goAMpSTgP3EdkrI4cjcQ-30" value="" style="endArrow=none;html=1;rounded=0;entryX=1;entryY=0.5;entryDx=0;entryDy=0;" edge="1" parent="1" target="goAMpSTgP3EdkrI4cjcQ-11">
          <mxGeometry relative="1" as="geometry">
            <mxPoint x="220" y="50" as="sourcePoint" />
            <mxPoint x="265" y="40" as="targetPoint" />
          </mxGeometry>
        </mxCell>
        <mxCell id="goAMpSTgP3EdkrI4cjcQ-31" value="" style="endArrow=none;html=1;rounded=0;exitX=0.408;exitY=1.003;exitDx=0;exitDy=0;exitPerimeter=0;entryX=0.25;entryY=0;entryDx=0;entryDy=0;" edge="1" parent="1" source="goAMpSTgP3EdkrI4cjcQ-11" target="goAMpSTgP3EdkrI4cjcQ-1">
          <mxGeometry relative="1" as="geometry">
            <mxPoint x="260" y="220" as="sourcePoint" />
            <mxPoint x="420" y="220" as="targetPoint" />
          </mxGeometry>
        </mxCell>
        <mxCell id="goAMpSTgP3EdkrI4cjcQ-33" value="일하는곳" style="shape=rhombus;perimeter=rhombusPerimeter;whiteSpace=wrap;html=1;align=center;" vertex="1" parent="1">
          <mxGeometry x="450" y="104" width="120" height="60" as="geometry" />
        </mxCell>
        <mxCell id="goAMpSTgP3EdkrI4cjcQ-34" value="감독" style="shape=rhombus;perimeter=rhombusPerimeter;whiteSpace=wrap;html=1;align=center;" vertex="1" parent="1">
          <mxGeometry x="460" y="198" width="120" height="60" as="geometry" />
        </mxCell>
        <mxCell id="goAMpSTgP3EdkrI4cjcQ-35" value="일하는시간" style="shape=rhombus;perimeter=rhombusPerimeter;whiteSpace=wrap;html=1;align=center;" vertex="1" parent="1">
          <mxGeometry x="460" y="290" width="120" height="60" as="geometry" />
        </mxCell>
        <mxCell id="goAMpSTgP3EdkrI4cjcQ-36" value="" style="shape=link;html=1;rounded=0;exitX=1;exitY=0.5;exitDx=0;exitDy=0;entryX=0;entryY=0.5;entryDx=0;entryDy=0;" edge="1" parent="1" source="goAMpSTgP3EdkrI4cjcQ-34" target="goAMpSTgP3EdkrI4cjcQ-2">
          <mxGeometry relative="1" as="geometry">
            <mxPoint x="580" y="217.38" as="sourcePoint" />
            <mxPoint x="740" y="217.38" as="targetPoint" />
          </mxGeometry>
        </mxCell>
        <mxCell id="goAMpSTgP3EdkrI4cjcQ-37" value="1" style="resizable=0;html=1;align=right;verticalAlign=bottom;" connectable="0" vertex="1" parent="goAMpSTgP3EdkrI4cjcQ-36">
          <mxGeometry x="1" relative="1" as="geometry">
            <mxPoint x="-69.55" y="-29.88" as="offset" />
          </mxGeometry>
        </mxCell>
        <mxCell id="goAMpSTgP3EdkrI4cjcQ-38" value="위치" style="ellipse;shape=doubleEllipse;margin=3;whiteSpace=wrap;html=1;align=center;" vertex="1" parent="1">
          <mxGeometry x="720" y="130" width="100" height="40" as="geometry" />
        </mxCell>
        <mxCell id="goAMpSTgP3EdkrI4cjcQ-39" value="번호" style="ellipse;whiteSpace=wrap;html=1;align=center;fontStyle=4;" vertex="1" parent="1">
          <mxGeometry x="660" y="58" width="100" height="40" as="geometry" />
        </mxCell>
        <mxCell id="goAMpSTgP3EdkrI4cjcQ-40" value="이름" style="ellipse;whiteSpace=wrap;html=1;align=center;" vertex="1" parent="1">
          <mxGeometry x="610" y="108" width="100" height="40" as="geometry" />
        </mxCell>
        <mxCell id="goAMpSTgP3EdkrI4cjcQ-42" value="" style="endArrow=none;html=1;rounded=0;exitX=0.5;exitY=1;exitDx=0;exitDy=0;entryX=0.5;entryY=0;entryDx=0;entryDy=0;" edge="1" parent="1" source="goAMpSTgP3EdkrI4cjcQ-39" target="goAMpSTgP3EdkrI4cjcQ-2">
          <mxGeometry relative="1" as="geometry">
            <mxPoint x="705" y="98" as="sourcePoint" />
            <mxPoint x="715" y="148" as="targetPoint" />
          </mxGeometry>
        </mxCell>
        <mxCell id="goAMpSTgP3EdkrI4cjcQ-43" value="" style="endArrow=none;html=1;rounded=0;exitX=0.5;exitY=1;exitDx=0;exitDy=0;entryX=0;entryY=0;entryDx=0;entryDy=0;" edge="1" parent="1" source="goAMpSTgP3EdkrI4cjcQ-40" target="goAMpSTgP3EdkrI4cjcQ-2">
          <mxGeometry relative="1" as="geometry">
            <mxPoint x="650" y="160" as="sourcePoint" />
            <mxPoint x="660" y="210" as="targetPoint" />
          </mxGeometry>
        </mxCell>
        <mxCell id="goAMpSTgP3EdkrI4cjcQ-44" value="" style="endArrow=none;html=1;rounded=0;entryX=0.75;entryY=0;entryDx=0;entryDy=0;exitX=0.5;exitY=1;exitDx=0;exitDy=0;" edge="1" parent="1" source="goAMpSTgP3EdkrI4cjcQ-38" target="goAMpSTgP3EdkrI4cjcQ-2">
          <mxGeometry relative="1" as="geometry">
            <mxPoint x="780" y="164" as="sourcePoint" />
            <mxPoint x="755" y="214" as="targetPoint" />
          </mxGeometry>
        </mxCell>
        <mxCell id="goAMpSTgP3EdkrI4cjcQ-50" value="1" style="endArrow=none;html=1;rounded=0;entryX=0;entryY=0.5;entryDx=0;entryDy=0;" edge="1" parent="1" target="goAMpSTgP3EdkrI4cjcQ-34">
          <mxGeometry x="1" y="18" relative="1" as="geometry">
            <mxPoint x="310" y="230" as="sourcePoint" />
            <mxPoint x="470" y="239.38" as="targetPoint" />
            <mxPoint x="2" as="offset" />
          </mxGeometry>
        </mxCell>
        <mxCell id="goAMpSTgP3EdkrI4cjcQ-51" value="" style="shape=link;html=1;rounded=0;entryX=0;entryY=0.5;entryDx=0;entryDy=0;exitX=1;exitY=0.25;exitDx=0;exitDy=0;" edge="1" parent="1" source="goAMpSTgP3EdkrI4cjcQ-1" target="goAMpSTgP3EdkrI4cjcQ-33">
          <mxGeometry relative="1" as="geometry">
            <mxPoint x="320" y="230" as="sourcePoint" />
            <mxPoint x="460" y="239.38" as="targetPoint" />
          </mxGeometry>
        </mxCell>
        <mxCell id="goAMpSTgP3EdkrI4cjcQ-52" value="N" style="resizable=0;html=1;align=right;verticalAlign=bottom;" connectable="0" vertex="1" parent="goAMpSTgP3EdkrI4cjcQ-51">
          <mxGeometry x="1" relative="1" as="geometry" />
        </mxCell>
        <mxCell id="goAMpSTgP3EdkrI4cjcQ-53" value="" style="shape=link;html=1;rounded=0;entryX=1;entryY=0.5;entryDx=0;entryDy=0;exitX=0;exitY=0.25;exitDx=0;exitDy=0;" edge="1" parent="1" source="goAMpSTgP3EdkrI4cjcQ-2" target="goAMpSTgP3EdkrI4cjcQ-33">
          <mxGeometry relative="1" as="geometry">
            <mxPoint x="530" y="320" as="sourcePoint" />
            <mxPoint x="690" y="320" as="targetPoint" />
          </mxGeometry>
        </mxCell>
        <mxCell id="goAMpSTgP3EdkrI4cjcQ-54" value="1" style="resizable=0;html=1;align=right;verticalAlign=bottom;" connectable="0" vertex="1" parent="goAMpSTgP3EdkrI4cjcQ-53">
          <mxGeometry x="1" relative="1" as="geometry" />
        </mxCell>
        <mxCell id="goAMpSTgP3EdkrI4cjcQ-56" value="시작일" style="ellipse;whiteSpace=wrap;html=1;align=center;" vertex="1" parent="1">
          <mxGeometry x="414" y="160" width="66" height="40" as="geometry" />
        </mxCell>
        <mxCell id="goAMpSTgP3EdkrI4cjcQ-57" value="" style="endArrow=none;html=1;rounded=0;exitX=0.5;exitY=1;exitDx=0;exitDy=0;entryX=0;entryY=0;entryDx=0;entryDy=0;" edge="1" parent="1" source="goAMpSTgP3EdkrI4cjcQ-56" target="goAMpSTgP3EdkrI4cjcQ-34">
          <mxGeometry relative="1" as="geometry">
            <mxPoint x="395" y="320" as="sourcePoint" />
            <mxPoint x="405" y="370" as="targetPoint" />
          </mxGeometry>
        </mxCell>
        <mxCell id="goAMpSTgP3EdkrI4cjcQ-59" value="시간" style="ellipse;whiteSpace=wrap;html=1;align=center;" vertex="1" parent="1">
          <mxGeometry x="397" y="250" width="100" height="40" as="geometry" />
        </mxCell>
        <mxCell id="goAMpSTgP3EdkrI4cjcQ-60" value="" style="endArrow=none;html=1;rounded=0;exitX=0.5;exitY=1;exitDx=0;exitDy=0;entryX=0;entryY=0;entryDx=0;entryDy=0;" edge="1" parent="1" source="goAMpSTgP3EdkrI4cjcQ-59" target="goAMpSTgP3EdkrI4cjcQ-35">
          <mxGeometry relative="1" as="geometry">
            <mxPoint x="405" y="330" as="sourcePoint" />
            <mxPoint x="415" y="380" as="targetPoint" />
          </mxGeometry>
        </mxCell>
        <mxCell id="goAMpSTgP3EdkrI4cjcQ-61" value="M" style="shape=link;html=1;rounded=0;exitX=1;exitY=0.75;exitDx=0;exitDy=0;entryX=0;entryY=0.5;entryDx=0;entryDy=0;" edge="1" parent="1" source="goAMpSTgP3EdkrI4cjcQ-1" target="goAMpSTgP3EdkrI4cjcQ-35">
          <mxGeometry x="0.9471" y="9" relative="1" as="geometry">
            <mxPoint x="310" y="319.38" as="sourcePoint" />
            <mxPoint x="470" y="319.38" as="targetPoint" />
            <mxPoint as="offset" />
          </mxGeometry>
        </mxCell>
        <mxCell id="goAMpSTgP3EdkrI4cjcQ-63" value="제어" style="shape=rhombus;perimeter=rhombusPerimeter;whiteSpace=wrap;html=1;align=center;" vertex="1" parent="1">
          <mxGeometry x="660" y="318" width="120" height="60" as="geometry" />
        </mxCell>
        <mxCell id="goAMpSTgP3EdkrI4cjcQ-66" value="1" style="endArrow=none;html=1;rounded=0;exitX=0.5;exitY=1;exitDx=0;exitDy=0;entryX=0.5;entryY=0;entryDx=0;entryDy=0;" edge="1" parent="1" source="goAMpSTgP3EdkrI4cjcQ-2" target="goAMpSTgP3EdkrI4cjcQ-63">
          <mxGeometry relative="1" as="geometry">
            <mxPoint x="715" y="268" as="sourcePoint" />
            <mxPoint x="725" y="318" as="targetPoint" />
          </mxGeometry>
        </mxCell>
        <mxCell id="goAMpSTgP3EdkrI4cjcQ-67" value="프로젝트" style="whiteSpace=wrap;html=1;align=center;" vertex="1" parent="1">
          <mxGeometry x="670" y="430" width="100" height="40" as="geometry" />
        </mxCell>
        <mxCell id="goAMpSTgP3EdkrI4cjcQ-68" value="" style="shape=link;html=1;rounded=0;exitX=0;exitY=0.5;exitDx=0;exitDy=0;entryX=1;entryY=0.5;entryDx=0;entryDy=0;" edge="1" parent="1" source="goAMpSTgP3EdkrI4cjcQ-67" target="goAMpSTgP3EdkrI4cjcQ-35">
          <mxGeometry relative="1" as="geometry">
            <mxPoint x="270" y="470" as="sourcePoint" />
            <mxPoint x="430" y="470" as="targetPoint" />
          </mxGeometry>
        </mxCell>
        <mxCell id="goAMpSTgP3EdkrI4cjcQ-69" value="N" style="resizable=0;html=1;align=right;verticalAlign=bottom;" connectable="0" vertex="1" parent="goAMpSTgP3EdkrI4cjcQ-68">
          <mxGeometry x="1" relative="1" as="geometry" />
        </mxCell>
        <mxCell id="goAMpSTgP3EdkrI4cjcQ-70" value="" style="shape=link;html=1;rounded=0;entryX=0.5;entryY=1;entryDx=0;entryDy=0;exitX=0.5;exitY=0;exitDx=0;exitDy=0;" edge="1" parent="1" source="goAMpSTgP3EdkrI4cjcQ-67" target="goAMpSTgP3EdkrI4cjcQ-63">
          <mxGeometry relative="1" as="geometry">
            <mxPoint x="270" y="470" as="sourcePoint" />
            <mxPoint x="430" y="470" as="targetPoint" />
          </mxGeometry>
        </mxCell>
        <mxCell id="goAMpSTgP3EdkrI4cjcQ-71" value="N" style="resizable=0;html=1;align=right;verticalAlign=bottom;" connectable="0" vertex="1" parent="goAMpSTgP3EdkrI4cjcQ-70">
          <mxGeometry x="1" relative="1" as="geometry" />
        </mxCell>
        <mxCell id="goAMpSTgP3EdkrI4cjcQ-73" value="위치" style="ellipse;whiteSpace=wrap;html=1;align=center;" vertex="1" parent="1">
          <mxGeometry x="732.5" y="490" width="75" height="28" as="geometry" />
        </mxCell>
        <mxCell id="goAMpSTgP3EdkrI4cjcQ-74" value="이름" style="ellipse;whiteSpace=wrap;html=1;align=center;" vertex="1" parent="1">
          <mxGeometry x="570" y="472" width="75" height="28" as="geometry" />
        </mxCell>
        <mxCell id="goAMpSTgP3EdkrI4cjcQ-75" value="번호" style="ellipse;whiteSpace=wrap;html=1;align=center;fontStyle=4;" vertex="1" parent="1">
          <mxGeometry x="630" y="530" width="100" height="40" as="geometry" />
        </mxCell>
        <mxCell id="goAMpSTgP3EdkrI4cjcQ-76" value="" style="endArrow=none;html=1;rounded=0;exitX=0.5;exitY=1;exitDx=0;exitDy=0;entryX=0.5;entryY=0;entryDx=0;entryDy=0;" edge="1" parent="1">
          <mxGeometry relative="1" as="geometry">
            <mxPoint x="770" y="440" as="sourcePoint" />
            <mxPoint x="780" y="490" as="targetPoint" />
          </mxGeometry>
        </mxCell>
        <mxCell id="goAMpSTgP3EdkrI4cjcQ-77" value="" style="endArrow=none;html=1;rounded=0;exitX=0;exitY=1;exitDx=0;exitDy=0;entryX=1;entryY=0.5;entryDx=0;entryDy=0;" edge="1" parent="1" source="goAMpSTgP3EdkrI4cjcQ-67" target="goAMpSTgP3EdkrI4cjcQ-74">
          <mxGeometry relative="1" as="geometry">
            <mxPoint x="635" y="440" as="sourcePoint" />
            <mxPoint x="645" y="490" as="targetPoint" />
          </mxGeometry>
        </mxCell>
        <mxCell id="goAMpSTgP3EdkrI4cjcQ-78" value="" style="endArrow=none;html=1;rounded=0;exitX=0.5;exitY=1;exitDx=0;exitDy=0;entryX=0.5;entryY=0;entryDx=0;entryDy=0;" edge="1" parent="1" source="goAMpSTgP3EdkrI4cjcQ-67" target="goAMpSTgP3EdkrI4cjcQ-75">
          <mxGeometry relative="1" as="geometry">
            <mxPoint x="700" y="461" as="sourcePoint" />
            <mxPoint x="710" y="511" as="targetPoint" />
          </mxGeometry>
        </mxCell>
        <mxCell id="goAMpSTgP3EdkrI4cjcQ-79" value="부양가족" style="shape=rhombus;double=1;perimeter=rhombusPerimeter;whiteSpace=wrap;html=1;align=center;" vertex="1" parent="1">
          <mxGeometry x="340" y="450" width="120" height="60" as="geometry" />
        </mxCell>
        <mxCell id="goAMpSTgP3EdkrI4cjcQ-80" value="" style="endArrow=none;html=1;rounded=0;exitX=1;exitY=1;exitDx=0;exitDy=0;entryX=0.5;entryY=0;entryDx=0;entryDy=0;" edge="1" parent="1" source="goAMpSTgP3EdkrI4cjcQ-1" target="goAMpSTgP3EdkrI4cjcQ-79">
          <mxGeometry relative="1" as="geometry">
            <mxPoint x="270" y="350" as="sourcePoint" />
            <mxPoint x="430" y="350" as="targetPoint" />
          </mxGeometry>
        </mxCell>
        <mxCell id="goAMpSTgP3EdkrI4cjcQ-81" value="1" style="resizable=0;html=1;align=right;verticalAlign=bottom;" connectable="0" vertex="1" parent="goAMpSTgP3EdkrI4cjcQ-80">
          <mxGeometry x="1" relative="1" as="geometry">
            <mxPoint x="13.81" y="-10.41" as="offset" />
          </mxGeometry>
        </mxCell>
        <mxCell id="goAMpSTgP3EdkrI4cjcQ-82" value="부양가족" style="shape=ext;margin=3;double=1;whiteSpace=wrap;html=1;align=center;" vertex="1" parent="1">
          <mxGeometry x="350" y="545" width="100" height="40" as="geometry" />
        </mxCell>
        <mxCell id="goAMpSTgP3EdkrI4cjcQ-83" value="이름" style="ellipse;whiteSpace=wrap;html=1;align=center;" vertex="1" parent="1">
          <mxGeometry x="275" y="600" width="75" height="28" as="geometry" />
        </mxCell>
        <mxCell id="goAMpSTgP3EdkrI4cjcQ-84" value="성별" style="ellipse;whiteSpace=wrap;html=1;align=center;" vertex="1" parent="1">
          <mxGeometry x="362.5" y="620" width="75" height="28" as="geometry" />
        </mxCell>
        <mxCell id="goAMpSTgP3EdkrI4cjcQ-85" value="관계" style="ellipse;whiteSpace=wrap;html=1;align=center;" vertex="1" parent="1">
          <mxGeometry x="210" y="500" width="75" height="28" as="geometry" />
        </mxCell>
        <mxCell id="goAMpSTgP3EdkrI4cjcQ-86" value="생년월일" style="ellipse;whiteSpace=wrap;html=1;align=center;" vertex="1" parent="1">
          <mxGeometry x="450" y="600" width="75" height="28" as="geometry" />
        </mxCell>
        <mxCell id="goAMpSTgP3EdkrI4cjcQ-88" value="" style="endArrow=none;html=1;rounded=0;exitX=0.5;exitY=1;exitDx=0;exitDy=0;entryX=0.727;entryY=0.062;entryDx=0;entryDy=0;entryPerimeter=0;" edge="1" parent="1" target="goAMpSTgP3EdkrI4cjcQ-84">
          <mxGeometry relative="1" as="geometry">
            <mxPoint x="400" y="578" as="sourcePoint" />
            <mxPoint x="410" y="628" as="targetPoint" />
          </mxGeometry>
        </mxCell>
        <mxCell id="goAMpSTgP3EdkrI4cjcQ-89" value="" style="endArrow=none;html=1;rounded=0;exitX=0.25;exitY=1;exitDx=0;exitDy=0;entryX=0.5;entryY=0;entryDx=0;entryDy=0;" edge="1" parent="1" source="goAMpSTgP3EdkrI4cjcQ-82">
          <mxGeometry relative="1" as="geometry">
            <mxPoint x="315" y="550" as="sourcePoint" />
            <mxPoint x="325" y="600" as="targetPoint" />
          </mxGeometry>
        </mxCell>
        <mxCell id="goAMpSTgP3EdkrI4cjcQ-90" value="" style="endArrow=none;html=1;rounded=0;exitX=0;exitY=0.5;exitDx=0;exitDy=0;entryX=1;entryY=0.5;entryDx=0;entryDy=0;" edge="1" parent="1" source="goAMpSTgP3EdkrI4cjcQ-79" target="goAMpSTgP3EdkrI4cjcQ-85">
          <mxGeometry relative="1" as="geometry">
            <mxPoint x="275" y="460" as="sourcePoint" />
            <mxPoint x="285" y="510" as="targetPoint" />
          </mxGeometry>
        </mxCell>
        <mxCell id="goAMpSTgP3EdkrI4cjcQ-91" value="" style="endArrow=none;html=1;rounded=0;exitX=1;exitY=0.5;exitDx=0;exitDy=0;entryX=0.387;entryY=-0.08;entryDx=0;entryDy=0;entryPerimeter=0;" edge="1" parent="1" source="goAMpSTgP3EdkrI4cjcQ-82" target="goAMpSTgP3EdkrI4cjcQ-86">
          <mxGeometry relative="1" as="geometry">
            <mxPoint x="460" y="560" as="sourcePoint" />
            <mxPoint x="470" y="610" as="targetPoint" />
          </mxGeometry>
        </mxCell>
        <mxCell id="goAMpSTgP3EdkrI4cjcQ-92" value="" style="shape=link;html=1;rounded=0;entryX=0.5;entryY=1;entryDx=0;entryDy=0;exitX=0.5;exitY=0;exitDx=0;exitDy=0;" edge="1" parent="1" source="goAMpSTgP3EdkrI4cjcQ-82" target="goAMpSTgP3EdkrI4cjcQ-79">
          <mxGeometry relative="1" as="geometry">
            <mxPoint x="270" y="350" as="sourcePoint" />
            <mxPoint x="430" y="350" as="targetPoint" />
          </mxGeometry>
        </mxCell>
        <mxCell id="goAMpSTgP3EdkrI4cjcQ-93" value="N" style="resizable=0;html=1;align=right;verticalAlign=bottom;" connectable="0" vertex="1" parent="goAMpSTgP3EdkrI4cjcQ-92">
          <mxGeometry x="1" relative="1" as="geometry" />
        </mxCell>
      </root>
    </mxGraphModel>
  </diagram>
</mxfile>
